<svg width="379" height="207" viewBox="0 0 379 207" fill="none" xmlns="http://www.w3.org/2000/svg">
<path d="M9.21999 168.21L8.96999 171.18L10.13 169.53L33.73 144.61H44.95L20.19 170.52L46.1 204.44H35.12L13.83 175.97L9.12999 180.51L9.20999 204.44H0.459991V144.61H9.20999V168.21H9.21999Z" fill="black"/>
<path d="M59.89 135.94C59.89 134.67 60.4 133.6 61.42 132.72C62.44 131.84 63.55 131.4 64.76 131.4C65.97 131.4 67.07 131.84 68.06 132.72C69.05 133.6 69.55 134.67 69.55 135.94C69.55 137.32 69.05 138.42 68.06 139.24C67.07 140.07 65.97 140.48 64.76 140.48C63.55 140.48 62.44 140.07 61.42 139.24C60.4 138.41 59.89 137.32 59.89 135.94ZM60.39 144.6H68.97V204.43H60.39V144.6Z" fill="black"/>
<path d="M89.52 204.44V142.63H89.6L121.29 187.61L117.58 186.87L149.19 142.64H149.36V204.45H140.78V162.2L141.28 166.57L119.16 198.01H118.99L96.38 166.57L97.87 162.53V204.45H89.53L89.52 204.44Z" fill="black"/>
<path d="M166.1 174.56C166.1 170.43 166.88 166.53 168.45 162.84C170.02 159.15 172.2 155.89 175.01 153.06C177.82 150.23 181.06 148 184.75 146.38C188.44 144.76 192.37 143.95 196.55 143.95C200.73 143.95 204.68 144.76 208.39 146.38C212.1 148 215.38 150.23 218.21 153.06C221.04 155.89 223.26 159.15 224.85 162.84C226.44 166.53 227.24 170.43 227.24 174.56C227.24 178.69 226.44 182.76 224.85 186.44C223.25 190.13 221.04 193.37 218.21 196.18C215.38 198.99 212.1 201.17 208.39 202.74C204.68 204.31 200.73 205.09 196.55 205.09C192.37 205.09 188.43 204.31 184.75 202.74C181.06 201.17 177.82 199.01 175.01 196.26C172.2 193.51 170.02 190.28 168.45 186.56C166.88 182.85 166.1 178.84 166.1 174.55V174.56ZM175.02 174.64C175.02 178.71 175.98 182.43 177.91 185.78C179.83 189.14 182.45 191.8 185.75 193.78C189.05 195.76 192.74 196.75 196.81 196.75C200.88 196.75 204.46 195.76 207.7 193.78C210.95 191.8 213.53 189.13 215.46 185.78C217.39 182.42 218.35 178.68 218.35 174.56C218.35 170.44 217.37 166.68 215.42 163.3C213.47 159.92 210.85 157.23 207.58 155.25C204.31 153.27 200.66 152.28 196.65 152.28C192.64 152.28 188.9 153.28 185.63 155.29C182.36 157.3 179.77 159.99 177.87 163.38C175.97 166.76 175.02 170.52 175.02 174.64Z" fill="black"/>
<path d="M239.51 196.47C240.47 195.56 241.53 195.11 242.69 195.11C243.85 195.11 244.81 195.56 245.74 196.47C246.67 197.38 247.14 198.49 247.14 199.81C247.14 201.13 246.67 202.3 245.74 203.15C244.8 204 243.79 204.43 242.69 204.43C241.53 204.43 240.48 204 239.51 203.15C238.55 202.3 238.07 201.18 238.07 199.81C238.07 198.44 238.55 197.38 239.51 196.47Z" fill="black"/>
<path d="M313.58 206.5L267.45 160.45L270.01 161.28L270.18 204.44H261.51V142.71H261.84L307.39 188.76L305.41 188.26L305.24 144.6H313.82V206.49H313.57L313.58 206.5Z" fill="black"/>
<path d="M342.13 183.06C342.13 185.59 342.75 187.89 343.99 189.95C345.23 192.01 346.92 193.65 349.07 194.86C351.22 196.07 353.58 196.68 356.17 196.68C358.92 196.68 361.37 196.08 363.51 194.86C365.66 193.65 367.35 192.01 368.59 189.95C369.83 187.89 370.45 185.59 370.45 183.06V144.6H378.95V183.3C378.95 187.65 377.93 191.46 375.9 194.73C373.86 198 371.13 200.55 367.69 202.36C364.25 204.17 360.41 205.08 356.18 205.08C351.95 205.08 348.1 204.17 344.67 202.36C341.23 200.54 338.51 198 336.5 194.73C334.49 191.46 333.49 187.65 333.49 183.3V144.6H342.16V183.06H342.13Z" fill="black"/>
<path d="M162.18 4.73002C143.87 -2.89998 127.29 1.45001 122.27 2.99001C126.06 12.48 132.32 25.17 142.67 38.23C151.15 48.97 159.94 56.87 167.13 62.42C159.67 81.16 152.2 99.9 144.74 118.64H185.19V22.22C181.69 17.8 174.29 9.78002 162.18 4.72002V4.73002ZM175.86 35.16L170.62 54.27C167.1 49.44 163.59 44.59 160.07 39.74C159.1 38.41 158.41 36.88 158.16 35.24C157.35 29.6 160.73 24.52 164.81 23.53C168.21 22.72 172.52 24.63 174.97 28.51C176.21 30.48 176.48 32.9 175.86 35.16Z" fill="black"/>
<path d="M193.32 22.23V118.65C206.8 118.65 220.29 118.65 233.77 118.65C226.31 99.91 218.84 81.17 211.38 62.43C218.57 56.87 227.36 48.98 235.84 38.24C246.19 25.18 252.44 12.49 256.24 3.00002C251.22 1.47002 234.64 -2.88998 216.33 4.74002C204.22 9.80002 196.82 17.82 193.32 22.24V22.23ZM203.54 28.51C205.99 24.63 210.3 22.73 213.7 23.53C217.78 24.53 221.16 29.6 220.35 35.24C220.1 36.88 219.42 38.41 218.44 39.74C214.92 44.59 211.41 49.44 207.89 54.27L202.65 35.16C202.03 32.9 202.3 30.47 203.54 28.51Z" fill="black"/>
</svg>
